<?xml version="1.0" standalone="no"?>
<!DOCTYPE svg PUBLIC "-//W3C//DTD SVG 20010904//EN"
 "http://www.w3.org/TR/2001/REC-SVG-20010904/DTD/svg10.dtd">
<svg version="1.0" xmlns="http://www.w3.org/2000/svg"
 width="310.000000pt" height="310.000000pt" viewBox="0 0 310.000000 310.000000"
 preserveAspectRatio="xMidYMid meet">
<metadata>
Created by potrace 1.14, written by Peter Selinger 2001-2017
</metadata>
<g transform="translate(0.000000,310.000000) scale(0.100000,-0.100000)"
fill="#000000" stroke="none">
<path d="M480 1545 l0 -655 465 0 466 0 -3 103 -3 102 -337 3 -338 2 0 550 0
550 -125 0 -125 0 0 -655z"/>
<path d="M1590 1545 l0 -655 125 0 125 0 0 168 0 168 96 102 c53 56 100 102
104 102 5 0 111 -121 236 -270 l226 -270 140 0 c109 0 138 3 132 13 -4 6 -133
168 -286 358 -153 190 -278 348 -278 352 0 3 121 135 269 294 l269 288 -131 3
-132 3 -115 -118 c-64 -65 -209 -215 -323 -333 l-206 -215 -1 333 0 332 -125
0 -125 0 0 -655z"/>
</g>
</svg>
